<?xml version="1.0" encoding="UTF-8"?>
<svg width="162px" height="24px" viewBox="0 0 162 24" version="1.1" xmlns="http://www.w3.org/2000/svg" xmlns:xlink="http://www.w3.org/1999/xlink">
    <!-- Generator: Sketch 54.1 (76490) - https://sketchapp.com -->
    <title>HusetKBH</title>
    <desc>Created with Sketch.</desc>
    <g id="Page-1" stroke="none" stroke-width="1" fill="none" fill-rule="evenodd">
        <g id="Idno" transform="translate(-25.000000, -25.000000)" fill="#262424" fill-rule="nonzero">
            <path d="M25,25 L29.992,25 L29.992,33.448 L39.688,33.448 L39.688,25 L44.68,25 L44.68,47.656 L39.688,47.656 L39.688,37.864 L29.992,37.864 L29.992,47.656 L25,47.656 L25,25 Z M63.656,47.656 L59.048,47.656 L59.048,45.544 L58.984,45.544 C58.8133325,45.8426682 58.594668,46.1413318 58.328,46.44 C58.061332,46.7386682 57.7360019,47.0053322 57.352,47.24 C56.9679981,47.4746678 56.5306691,47.6666659 56.04,47.816 C55.5493309,47.9653341 55.0160029,48.04 54.44,48.04 C53.2239939,48.04 52.2373371,47.8533352 51.48,47.48 C50.7226629,47.1066648 50.1360021,46.5893366 49.72,45.928 C49.3039979,45.2666634 49.0266674,44.4880045 48.888,43.592 C48.7493326,42.6959955 48.68,41.7253386 48.68,40.68 L48.68,32.104 L53.48,32.104 L53.48,39.72 C53.48,40.1680022 53.4959998,40.6319976 53.528,41.112 C53.5600002,41.5920024 53.6559992,42.0346646 53.816,42.44 C53.9760008,42.8453354 54.2213317,43.1759987 54.552,43.432 C54.8826683,43.6880013 55.3573302,43.816 55.976,43.816 C56.5946698,43.816 57.0959981,43.7040011 57.48,43.48 C57.8640019,43.2559989 58.1573323,42.9573352 58.36,42.584 C58.5626677,42.2106648 58.6959997,41.7893357 58.76,41.32 C58.8240003,40.8506643 58.856,40.3600026 58.856,39.848 L58.856,32.104 L63.656,32.104 L63.656,47.656 Z M75.848,36.68 C75.1439965,35.805329 74.2160058,35.368 73.064,35.368 C72.6586646,35.368 72.2640019,35.463999 71.88,35.656 C71.4959981,35.848001 71.304,36.1786643 71.304,36.648 C71.304,37.0320019 71.5013314,37.3146658 71.896,37.496 C72.2906686,37.6773342 72.791997,37.8373326 73.4,37.976 C74.008003,38.1146674 74.6586632,38.2639992 75.352,38.424 C76.0453368,38.5840008 76.695997,38.834665 77.304,39.176 C77.912003,39.517335 78.4133314,39.9813304 78.808,40.568 C79.2026686,41.1546696 79.4,41.9386618 79.4,42.92 C79.4,43.9226717 79.1813355,44.7493301 78.744,45.4 C78.3066645,46.0506699 77.7466701,46.5733314 77.064,46.968 C76.3813299,47.3626686 75.6133376,47.6399992 74.76,47.8 C73.9066624,47.9600008 73.0640042,48.04 72.232,48.04 C71.1439946,48.04 70.0453389,47.8853349 68.936,47.576 C67.8266611,47.2666651 66.8880038,46.7173373 66.12,45.928 L69.032,42.696 C69.4800022,43.2506694 69.9759973,43.6719986 70.52,43.96 C71.0640027,44.2480014 71.698663,44.392 72.424,44.392 C72.9786694,44.392 73.4799978,44.3120008 73.928,44.152 C74.3760022,43.9919992 74.6,43.6986688 74.6,43.272 C74.6,42.8666646 74.4026686,42.5626677 74.008,42.36 C73.6133314,42.1573323 73.112003,41.9866674 72.504,41.848 C71.895997,41.7093326 71.2453368,41.5600008 70.552,41.4 C69.8586632,41.2399992 69.208003,41.0000016 68.6,40.68 C67.991997,40.3599984 67.4906686,39.9066696 67.096,39.32 C66.7013314,38.7333304 66.504,37.9493382 66.504,36.968 C66.504,36.0506621 66.6906648,35.2613366 67.064,34.6 C67.4373352,33.9386634 67.927997,33.3946688 68.536,32.968 C69.144003,32.5413312 69.8426627,32.2266677 70.632,32.024 C71.4213373,31.8213323 72.2213293,31.72 73.032,31.72 C74.0560051,31.72 75.0906614,31.8693318 76.136,32.168 C77.1813386,32.4666682 78.066663,32.9999962 78.792,33.768 L75.848,36.68 Z M96.584,44.968 C95.8159962,45.9493382 94.8453392,46.706664 93.672,47.24 C92.4986608,47.773336 91.282673,48.04 90.024,48.04 C88.8293274,48.04 87.7040053,47.8480019 86.648,47.464 C85.5919947,47.0799981 84.6746706,46.5306702 83.896,45.816 C83.1173294,45.1013298 82.5040022,44.2426717 82.056,43.24 C81.6079978,42.2373283 81.384,41.1173395 81.384,39.88 C81.384,38.6426605 81.6079978,37.5226717 82.056,36.52 C82.5040022,35.5173283 83.1173294,34.6586702 83.896,33.944 C84.6746706,33.2293298 85.5919947,32.6800019 86.648,32.296 C87.7040053,31.9119981 88.8293274,31.72 90.024,31.72 C91.1333389,31.72 92.1413288,31.9119981 93.048,32.296 C93.9546712,32.6800019 94.7226635,33.2293298 95.352,33.944 C95.9813365,34.6586702 96.466665,35.5173283 96.808,36.52 C97.149335,37.5226717 97.32,38.6426605 97.32,39.88 L97.32,41.384 L86.184,41.384 C86.376001,42.3013379 86.7919968,43.0319973 87.432,43.576 C88.0720032,44.1200027 88.8613286,44.392 89.8,44.392 C90.5893373,44.392 91.2559973,44.2160018 91.8,43.864 C92.3440027,43.5119982 92.8186646,43.0586694 93.224,42.504 L96.584,44.968 Z M92.52,38.12 C92.5413334,37.3093293 92.2746694,36.6160029 91.72,36.04 C91.1653306,35.4639971 90.450671,35.176 89.576,35.176 C89.042664,35.176 88.5733354,35.2613325 88.168,35.432 C87.7626646,35.6026675 87.4160014,35.821332 87.128,36.088 C86.8399986,36.354668 86.6160008,36.6639982 86.456,37.016 C86.2959992,37.3680018 86.2053334,37.7359981 86.184,38.12 L92.52,38.12 Z M110.824,35.944 L106.6,35.944 L106.6,41.128 C106.6,41.5546688 106.621333,41.9439982 106.664,42.296 C106.706667,42.6480018 106.802666,42.9519987 106.952,43.208 C107.101334,43.4640013 107.330665,43.6613326 107.64,43.8 C107.949335,43.9386674 108.359997,44.008 108.872,44.008 C109.128001,44.008 109.463998,43.9813336 109.88,43.928 C110.296002,43.8746664 110.610666,43.752001 110.824,43.56 L110.824,47.56 C110.290664,47.752001 109.736003,47.8799997 109.16,47.944 C108.583997,48.0080003 108.018669,48.04 107.464,48.04 C106.653329,48.04 105.90667,47.9546675 105.224,47.784 C104.54133,47.6133325 103.944003,47.3413352 103.432,46.968 C102.919997,46.5946648 102.520001,46.1093363 102.232,45.512 C101.943999,44.9146637 101.8,44.1893376 101.8,43.336 L101.8,35.944 L98.728,35.944 L98.728,32.104 L101.8,32.104 L101.8,27.496 L106.6,27.496 L106.6,32.104 L110.824,32.104 L110.824,35.944 Z M123.528,25 L128.52,25 L128.52,34.408 L137.32,25 L143.848,25 L133.768,35.528 L144.712,47.656 L137.736,47.656 L128.52,36.904 L128.52,47.656 L123.528,47.656 L123.528,25 Z M146.44,25 L154.888,25 C155.869338,25 156.855995,25.0693326 157.848,25.208 C158.840005,25.3466674 159.730663,25.6239979 160.52,26.04 C161.309337,26.4560021 161.949331,27.0373296 162.44,27.784 C162.930669,28.5306704 163.176,29.5226605 163.176,30.76 C163.176,32.0400064 162.81867,33.1013291 162.104,33.944 C161.38933,34.7866709 160.445339,35.3893315 159.272,35.752 L159.272,35.816 C160.01867,35.9226672 160.695997,36.1306651 161.304,36.44 C161.912003,36.7493349 162.434664,37.1439976 162.872,37.624 C163.309336,38.1040024 163.645332,38.6639968 163.88,39.304 C164.114668,39.9440032 164.232,40.626663 164.232,41.352 C164.232,42.5466726 163.976003,43.543996 163.464,44.344 C162.951997,45.144004 162.290671,45.7893309 161.48,46.28 C160.669329,46.7706691 159.757338,47.1226656 158.744,47.336 C157.730662,47.5493344 156.722672,47.656 155.72,47.656 L146.44,47.656 L146.44,25 Z M151.432,34.056 L155.048,34.056 C155.432002,34.056 155.810665,34.0133338 156.184,33.928 C156.557335,33.8426662 156.893332,33.704001 157.192,33.512 C157.490668,33.319999 157.730666,33.0640016 157.912,32.744 C158.093334,32.4239984 158.184,32.0400022 158.184,31.592 C158.184,31.1226643 158.082668,30.7333349 157.88,30.424 C157.677332,30.1146651 157.416002,29.8746675 157.096,29.704 C156.775998,29.5333325 156.413335,29.410667 156.008,29.336 C155.602665,29.261333 155.208002,29.224 154.824,29.224 L151.432,29.224 L151.432,34.056 Z M151.432,43.432 L155.912,43.432 C156.296002,43.432 156.685331,43.3893338 157.08,43.304 C157.474669,43.2186662 157.831998,43.0693344 158.152,42.856 C158.472002,42.6426656 158.733332,42.365335 158.936,42.024 C159.138668,41.682665 159.24,41.2666691 159.24,40.776 C159.24,40.242664 159.106668,39.8106683 158.84,39.48 C158.573332,39.1493317 158.237335,38.8986675 157.832,38.728 C157.426665,38.5573325 156.989336,38.4400003 156.52,38.376 C156.050664,38.3119997 155.613335,38.28 155.208,38.28 L151.432,38.28 L151.432,43.432 Z M167.176,25 L172.168,25 L172.168,33.448 L181.864,33.448 L181.864,25 L186.856,25 L186.856,47.656 L181.864,47.656 L181.864,37.864 L172.168,37.864 L172.168,47.656 L167.176,47.656 L167.176,25 Z" id="HusetKBH"></path>
        </g>
    </g>
</svg>