<?xml version="1.0" encoding="UTF-8"?>
<svg width="21px" height="20px" viewBox="0 0 21 20" version="1.1" xmlns="http://www.w3.org/2000/svg" xmlns:xlink="http://www.w3.org/1999/xlink">
    <!-- Generator: Sketch 54.1 (76490) - https://sketchapp.com -->
    <title>Shape</title>
    <desc>Created with Sketch.</desc>
    <g id="Page-1" stroke="none" stroke-width="1" fill="none" fill-rule="evenodd">
        <g id="Idno" transform="translate(-295.000000, -26.000000)" fill="#262424" fill-rule="nonzero" stroke="#262424">
            <g id="bx-search" transform="translate(296.000000, 27.000000)">
                <path d="M8,16 C9.77497657,15.9996354 11.4988042,15.4054306 12.897,14.312 L17.293,18.708 L18.707,17.294 L14.311,12.898 C15.4049999,11.4996645 15.9995731,9.77543735 16,8 C16,3.589 12.411,0 8,0 C3.589,0 -3.55271368e-15,3.589 -3.55271368e-15,8 C-3.55271368e-15,12.411 3.589,16 8,16 Z M8,2 C11.309,2 14,4.691 14,8 C14,11.309 11.309,14 8,14 C4.691,14 2,11.309 2,8 C2,4.691 4.691,2 8,2 Z" id="Shape"></path>
            </g>
        </g>
    </g>
</svg>